<svg width="48" height="48" viewBox="0 0 48 48" fill="none" xmlns="http://www.w3.org/2000/svg">
<path d="M14.2555 18.2108L14.2569 18.212C15.5028 19.295 15.5016 20.7246 15.5008 21.5522C15.5008 21.5718 15.5008 21.5911 15.5008 21.61V30.392C15.5008 30.4108 15.5008 30.4299 15.5008 30.4494C15.5015 31.2755 15.5028 32.705 14.2569 33.788L14.2555 33.7892C13.8239 34.1636 13.2866 34.4062 12.7257 34.6595C12.6905 34.6754 12.6552 34.6914 12.6199 34.7074C12.5655 34.7322 12.5114 34.757 12.4575 34.7817C11.729 35.1159 11.0459 35.4291 10.3275 35.4871L10.3265 35.4872C8.2381 35.6544 7.06693 34.2303 6.37892 33.3936C6.36006 33.3707 6.34156 33.3482 6.32342 33.3262L6.32224 33.3248C6.14774 33.1126 5.93202 32.8624 5.69892 32.5921C5.27607 32.1018 4.79602 31.5452 4.40102 31.0284C3.7458 30.1711 3.08864 29.1435 2.76206 27.9502L14.2555 18.2108ZM14.2555 18.2108C13.8332 17.8445 13.3021 17.603 12.7637 17.3582C12.7167 17.3368 12.6696 17.3154 12.6225 17.2938L12.6193 17.2923C12.5577 17.2644 12.4965 17.2364 12.4356 17.2086C11.7194 16.8813 11.0392 16.5704 10.3278 16.5129L14.2555 18.2108ZM37.6761 16.5127L37.6741 16.5129C36.9542 16.571 36.2704 16.8852 35.5416 17.2202C35.4887 17.2445 35.4356 17.2689 35.3822 17.2933C35.3415 17.3118 35.2976 17.3314 35.2511 17.3521C34.5388 17.6698 33.1946 18.2693 32.6836 19.7841C32.4978 20.3346 32.4992 20.9237 32.5006 21.472C32.5007 21.5183 32.5008 21.5643 32.5008 21.61V30.39C32.5008 30.4357 32.5007 30.4817 32.5006 30.528C32.4992 31.0761 32.4978 31.6649 32.6834 32.2151C33.1943 33.7309 34.5371 34.3301 35.2504 34.6484C35.2962 34.6689 35.3395 34.6882 35.3798 34.7065C35.4348 34.7316 35.4896 34.7567 35.5441 34.7817C36.2714 35.1153 36.9535 35.4282 37.6707 35.4869C38.4672 35.553 39.2653 35.3814 39.9643 34.9938L39.9643 34.9938L39.9728 34.989C40.6051 34.6329 41.0809 34.0535 41.5636 33.4655C41.6017 33.4191 41.6398 33.3727 41.678 33.3263L41.6792 33.3249C41.8538 33.1128 42.0689 32.8633 42.3011 32.594C42.7247 32.1028 43.2054 31.5454 43.6014 31.0269C44.2563 30.1694 44.9123 29.1418 45.2377 27.9475C45.5888 26.6695 45.5883 25.3278 45.2373 24.0489C45.001 23.1837 44.5728 22.4198 44.0083 21.6184C43.4625 20.8435 42.7274 19.9502 41.8191 18.8465L41.7752 18.7931C41.7752 18.793 41.7751 18.793 41.7751 18.7929C41.7414 18.7519 41.6855 18.681 41.6179 18.5952C41.4708 18.4085 41.2684 18.1516 41.1185 17.9798C40.8478 17.6695 40.4723 17.2904 39.9691 17.0089C39.2703 16.6176 38.4669 16.4499 37.6761 16.5127ZM10.3275 16.5129C8.21564 16.3421 7.02348 17.814 6.34339 18.6536C6.30327 18.7032 6.26493 18.7505 6.22828 18.7952L6.19832 18.8315C5.28287 19.9419 4.54281 20.8395 3.99364 21.6184C3.42783 22.4208 2.99924 23.1854 2.76206 24.0518L10.3275 16.5129ZM2.76202 24.052C2.41268 25.3278 2.41266 26.674 2.76197 27.9499L2.76202 24.052Z" stroke="#F8F8F8" stroke-width="3" stroke-linecap="round" stroke-linejoin="round"/>
<mask id="path-2-outside-1_10_29" maskUnits="userSpaceOnUse" x="7.00098" y="3" width="34" height="42" fill="black">
<rect fill="white" x="7.00098" y="3" width="34" height="42"/>
<path d="M10.001 18C10.001 11.372 16.269 6 24.001 6C31.733 6 38.001 11.372 38.001 18M38.001 34V35.6C38.001 39.134 34.421 42 30.001 42H26.001"/>
</mask>
<path d="M7.00098 18C7.00098 19.6569 8.34412 21 10.001 21C11.6578 21 13.001 19.6569 13.001 18H7.00098ZM35.001 18C35.001 19.6569 36.3441 21 38.001 21C39.6578 21 41.001 19.6569 41.001 18H35.001ZM41.001 34C41.001 32.3431 39.6578 31 38.001 31C36.3441 31 35.001 32.3431 35.001 34H41.001ZM26.001 39C24.3441 39 23.001 40.3431 23.001 42C23.001 43.6569 24.3441 45 26.001 45V39ZM13.001 18C13.001 13.4461 17.4752 9 24.001 9V3C15.0627 3 7.00098 9.29786 7.00098 18H13.001ZM24.001 9C30.5267 9 35.001 13.4461 35.001 18H41.001C41.001 9.29786 32.9392 3 24.001 3V9ZM35.001 34V35.6H41.001V34H35.001ZM35.001 35.6C35.001 36.8876 33.4228 39 30.001 39V45C35.4192 45 41.001 41.3804 41.001 35.6H35.001ZM30.001 39H26.001V45H30.001V39Z" fill="#F8F8F8" mask="url(#path-2-outside-1_10_29)"/>
</svg>
