<svg xmlns="http://www.w3.org/2000/svg" width="128" height="128" viewBox="0 0 128 128" fill="none">
<path fill-rule="evenodd" clip-rule="evenodd" d="M22.96 62L38.72 77.76C39.3095 78.3093 39.7823 78.9717 40.1102 79.7077C40.4382 80.4437 40.6145 81.2382 40.6287 82.0438C40.6429 82.8494 40.4947 83.6497 40.193 84.3968C39.8912 85.1439 39.4421 85.8225 38.8723 86.3923C38.3026 86.962 37.6239 87.4112 36.8768 87.713C36.1297 88.0147 35.3294 88.1629 34.5238 88.1487C33.7182 88.1345 32.9237 87.9582 32.1877 87.6302C31.4517 87.3023 30.7893 86.8295 30.24 86.24L4.24 60.24L0 56L4.24 51.76L30.24 25.76C31.3774 24.7002 32.8818 24.1232 34.4362 24.1506C35.9906 24.178 37.4737 24.8077 38.573 25.907C39.6723 27.0063 40.302 28.4894 40.3294 30.0438C40.3568 31.5982 39.7798 33.1026 38.72 34.24L22.96 50H102C108.896 50 115.509 52.7393 120.385 57.6152C125.261 62.4912 128 69.1044 128 76C128 82.8956 125.261 89.5088 120.385 94.3848C115.509 99.2607 108.896 102 102 102H86C84.4087 102 82.8826 101.368 81.7574 100.243C80.6321 99.1174 80 97.5913 80 96C80 94.4087 80.6321 92.8826 81.7574 91.7574C82.8826 90.6321 84.4087 90 86 90H102C105.713 90 109.274 88.525 111.899 85.8995C114.525 83.274 116 79.713 116 76C116 72.287 114.525 68.726 111.899 66.1005C109.274 63.475 105.713 62 102 62H22.96Z" fill="#372d2e"/>
</svg>