<svg width="128" height="128" viewBox="0 0 128 128" fill="none" xmlns="http://www.w3.org/2000/svg">
<path d="M33.6256 93.4143C33.0427 92.8108 32.7202 92.0025 32.7275 91.1634C32.7348 90.3244 33.0713 89.5218 33.6646 88.9285C34.2579 88.3352 35.0605 87.9987 35.8995 87.9914C36.7386 87.9841 37.5469 88.3066 38.1504 88.8895C43.0732 93.8121 49.3452 97.1644 56.1732 98.5225C63.0011 99.8806 70.0785 99.1835 76.5103 96.5194C82.9422 93.8553 88.4396 89.3438 92.3074 83.5554C96.1752 77.767 98.2398 70.9617 98.24 63.9999C98.2777 63.1769 98.6314 62.4 99.2274 61.8312C99.8235 61.2624 100.616 60.9453 101.44 60.9462C102.264 60.947 103.056 61.2656 103.651 61.8356C104.246 62.4057 104.598 63.1832 104.634 64.0063C104.633 72.2337 102.193 80.2761 97.622 87.1168C93.0509 93.9574 86.554 99.289 78.9529 102.437C71.3518 105.586 62.9878 106.41 54.9186 104.805C46.8493 103.2 39.4371 99.2381 33.6192 93.4207" fill="white"/>
<path d="M84.0384 79.4624C83.3323 79.9334 82.468 80.1046 81.6356 79.9384C80.8033 79.7721 80.071 79.2821 79.6 78.576C79.129 77.8698 78.9578 77.0055 79.124 76.1732C79.2902 75.3408 79.7803 74.6086 80.4864 74.1376L99.6864 61.3376C100.036 61.1043 100.428 60.9423 100.84 60.8606C101.253 60.7789 101.677 60.7792 102.089 60.8615C102.501 60.9438 102.893 61.1065 103.243 61.3403C103.592 61.5741 103.892 61.8743 104.125 62.224C104.358 62.5736 104.52 62.9657 104.602 63.378C104.683 63.7903 104.683 64.2146 104.601 64.6267C104.519 65.0389 104.356 65.4308 104.122 65.78C103.888 66.1293 103.588 66.4291 103.238 66.6624L84.0384 79.4624Z" fill="white"/>
<path d="M116.902 81.4272C117.15 81.7764 117.325 82.1718 117.417 82.5899C117.509 83.008 117.516 83.4404 117.438 83.8613C117.36 84.2823 117.199 84.6833 116.963 85.0406C116.727 85.398 116.422 85.7043 116.066 85.9416C115.709 86.1789 115.309 86.3423 114.888 86.422C114.468 86.5018 114.035 86.4964 113.617 86.406C113.198 86.3157 112.802 86.1423 112.452 85.8961C112.102 85.6499 111.804 85.3359 111.578 84.9728L98.7776 65.7728C98.3367 65.0667 98.1884 64.2165 98.3641 63.4028C98.5397 62.5891 99.0255 61.8759 99.7184 61.4145C100.411 60.9532 101.257 60.78 102.075 60.9317C102.894 61.0834 103.621 61.5481 104.102 62.2272L116.902 81.4272ZM91.8656 33.312C92.4656 33.9128 92.8024 34.7275 92.8018 35.5766C92.8012 36.4258 92.4633 37.2399 91.8624 37.84C91.5649 38.1371 91.2117 38.3727 90.8232 38.5333C90.4346 38.6939 90.0182 38.7764 89.5977 38.7762C88.7486 38.7756 87.9344 38.4376 87.3344 37.8368C82.4112 32.9138 76.1387 29.5614 69.3101 28.2035C62.4815 26.8456 55.4036 27.5432 48.9715 30.2081C42.5394 32.873 37.0421 37.3855 33.1747 43.1749C29.3074 48.9643 27.2437 55.7705 27.2448 62.7328C27.2439 63.5815 26.906 64.3951 26.3053 64.9946C25.7046 65.5941 24.8903 65.9304 24.0416 65.9296C23.1929 65.9287 22.3793 65.5908 21.7798 64.9901C21.1803 64.3893 20.8439 63.5751 20.8448 62.7264C20.844 54.4977 23.2836 46.4537 27.855 39.6117C32.4264 32.7697 38.9243 27.4371 46.5267 24.2884C54.1291 21.1398 62.4946 20.3165 70.565 21.9227C78.6353 23.5289 86.0481 27.4924 91.8656 33.312Z" fill="white"/>
<path d="M41.4464 47.264C41.7961 47.0307 42.1882 46.8686 42.6005 46.787C43.0127 46.7053 43.4371 46.7056 43.8492 46.7879C44.2613 46.8702 44.6532 47.0329 45.0025 47.2667C45.3518 47.5004 45.6516 47.8007 45.8848 48.1504C46.118 48.5 46.2801 48.8921 46.3618 49.3044C46.4435 49.7167 46.4432 50.141 46.3608 50.5531C46.2785 50.9653 46.1159 51.3572 45.8821 51.7064C45.6483 52.0557 45.3481 52.3555 44.9984 52.5888L25.7984 65.3888C25.4488 65.622 25.0566 65.7841 24.6444 65.8657C24.2321 65.9474 23.8078 65.9471 23.3956 65.8648C22.9835 65.7825 22.5916 65.6198 22.2423 65.386C21.8931 65.1523 21.5932 64.852 21.36 64.5024C21.1268 64.1527 20.9647 63.7606 20.883 63.3483C20.8014 62.936 20.8017 62.5117 20.884 62.0996C20.9663 61.6874 21.129 61.2955 21.3628 60.9463C21.5965 60.597 21.8968 60.2972 22.2464 60.064L41.4464 47.264Z" fill="white"/>
<path d="M8.58241 45.2992C8.33478 44.95 8.15974 44.5546 8.06767 44.1365C7.9756 43.7183 7.96837 43.286 8.0464 42.8651C8.12443 42.4441 8.28614 42.0431 8.52195 41.6857C8.75776 41.3284 9.06288 41.022 9.41924 40.7847C9.77559 40.5475 10.1759 40.3841 10.5966 40.3043C11.0172 40.2246 11.4496 40.23 11.8681 40.3203C12.2865 40.4107 12.6826 40.5841 13.0329 40.8303C13.3832 41.0765 13.6805 41.3904 13.9072 41.7536L26.7072 60.9536C27.1481 61.6597 27.2964 62.5099 27.1207 63.3235C26.9451 64.1372 26.4593 64.8505 25.7664 65.3118C25.0735 65.7732 24.2281 65.9464 23.4096 65.7947C22.5911 65.643 21.8639 65.1783 21.3824 64.4992L8.58241 45.2992Z" fill="white"/>
</svg>
