<svg width="128" height="128" viewBox="0 0 128 128" fill="none" xmlns="http://www.w3.org/2000/svg">
<path d="M61.7341 61.9406L61.3344 61.4062L60.9338 61.9398L47.6005 79.6998L46.9997 80.5H48.0003H101.334H102.373L101.724 79.688L83.9644 57.448L83.574 56.9592L83.1832 57.4477L70.3603 73.4763L61.7341 61.9406ZM10.667 31.5H10.167V32V106.667C10.167 112.809 15.1908 117.833 21.3337 117.833H96.0003H96.5003V117.333V106.667V106.167H96.0003H21.8337V32V31.5H21.3337H10.667ZM106.167 21.8334V84.8334H43.167V21.8334H106.167ZM106.667 10.1667H42.667C36.5242 10.1667 31.5003 15.1905 31.5003 21.3334V85.3334C31.5003 91.4762 36.5242 96.5 42.667 96.5H106.667C112.81 96.5 117.834 91.4762 117.834 85.3334V21.3334C117.834 15.1905 112.81 10.1667 106.667 10.1667Z" fill="#F8F8F8" stroke="black"/>
</svg>
